<svg width="100" height="101" viewBox="0 0 100 101" fill="none" xmlns="http://www.w3.org/2000/svg">
<g clip-path="url(#clip0_34_875)">
<circle cx="81.261" cy="82.4036" r="2.24834" fill="#2EBD87"/>
<circle cx="72.5894" cy="90.4339" r="3.8543" fill="#2EBD87"/>
<circle cx="45.6094" cy="42.8973" r="39.1854" fill="#2EBD87"/>
<path d="M49.5104 34.5864H47.7063C47.4534 34.5864 47.2134 34.7026 47.0585 34.9013L36.417 48.3819L31.3144 41.9165C31.2372 41.8185 31.1388 41.7392 31.0266 41.6847C30.9144 41.6302 30.7913 41.6017 30.6665 41.6016H28.8624C28.6895 41.6016 28.594 41.8003 28.6998 41.9345L35.7692 50.8906C36.0996 51.3088 36.7345 51.3088 37.0674 50.8906L49.673 34.9168C49.7789 34.7852 49.6834 34.5864 49.5104 34.5864Z" fill="black"/>
<circle cx="22.4837" cy="10.7781" r="10.2781" fill="#2EBD87"/>
<circle cx="92.5033" cy="4.99668" r="4.49668" fill="#2EBD87"/>
<circle cx="62.9537" cy="72.4469" r="10.9205" fill="#2EBD87"/>
<circle cx="39.1854" cy="42.8973" r="38.1854" stroke="#121212" stroke-width="2"/>
</g>
<defs>
<clipPath id="clip0_34_875">
<rect width="100" height="100" fill="white" transform="translate(0 0.5)"/>
</clipPath>
</defs>
</svg>
