<svg width="36" height="36" viewBox="0 0 36 36" fill="none" xmlns="http://www.w3.org/2000/svg">
<path opacity="0.4" d="M27.525 29.52C26.7 31.635 24.69 33 22.425 33H13.575C11.295 33 9.29997 31.635 8.47497 29.52C7.64997 27.39 8.21997 25.035 9.89997 23.505L15.975 18H20.04L26.1 23.505C27.78 25.035 28.335 27.39 27.525 29.52Z" fill="#1F94FF"/>
<path d="M20.73 27.2099H15.27C14.7 27.2099 14.25 26.7449 14.25 26.1899C14.25 25.6199 14.715 25.1699 15.27 25.1699H20.73C21.3 25.1699 21.75 25.6349 21.75 26.1899C21.75 26.7449 21.285 27.2099 20.73 27.2099Z" fill="#1F94FF"/>
<path d="M27.525 6.48C26.7 4.365 24.69 3 22.425 3H13.575C11.31 3 9.3 4.365 8.475 6.48C7.665 8.61 8.22 10.965 9.915 12.495L15.975 18H20.04L26.1 12.495C27.78 10.965 28.335 8.61 27.525 6.48ZM20.73 10.845H15.27C14.7 10.845 14.25 10.38 14.25 9.825C14.25 9.27 14.715 8.805 15.27 8.805H20.73C21.3 8.805 21.75 9.27 21.75 9.825C21.75 10.38 21.285 10.845 20.73 10.845Z" fill="#1F94FF"/>
</svg>
